<svg xmlns="http://www.w3.org/2000/svg" xmlns:xlink="http://www.w3.org/1999/xlink" width="438.279" height="437.085" viewBox="0 0 438.279 437.085"><defs><linearGradient id="a" x1="0.42" y1="0.619" x2="0.165" y2="0.883" gradientUnits="objectBoundingBox"><stop offset="0" stop-color="#fed45b"/><stop offset="0.996" stop-color="#fee59a"/><stop offset="1" stop-color="#f36f56"/></linearGradient><linearGradient id="b" x1="0.612" y1="0.183" x2="0.031" y2="1.833" gradientUnits="objectBoundingBox"><stop offset="0" stop-color="#ffc444"/><stop offset="0.996" stop-color="#f36f56"/></linearGradient><linearGradient id="c" x1="0.522" y1="-0.426" x2="0.408" y2="4.389" xlink:href="#b"/><linearGradient id="d" x1="0.526" y1="-0.127" x2="0.393" y2="3.135" xlink:href="#b"/><linearGradient id="h" y1="0.5" x2="1" y2="0.5" gradientUnits="objectBoundingBox"><stop offset="0" stop-color="#aa80f9"/><stop offset="0.996" stop-color="#6165d7"/></linearGradient><linearGradient id="i" x1="0.542" y1="1.152" x2="0.333" y2="-2.341" gradientUnits="objectBoundingBox"><stop offset="0.004" stop-color="#e38ddd"/><stop offset="1" stop-color="#9571f6"/></linearGradient><linearGradient id="j" x1="0.768" y1="1.08" x2="0.385" y2="0.251" gradientUnits="objectBoundingBox"><stop offset="0" stop-color="#444b8c"/><stop offset="0.181" stop-color="#3f4481"/><stop offset="0.996" stop-color="#26264f"/></linearGradient><linearGradient id="k" x1="0.407" y1="1.037" x2="0.551" y2="0.205" xlink:href="#j"/><linearGradient id="l" x1="0.964" y1="0.545" x2="-0.276" y2="0.279" xlink:href="#i"/><linearGradient id="m" x1="0.497" y1="0.921" x2="0.505" y2="-0.35" xlink:href="#j"/><linearGradient id="n" x1="0" y1="0.5" x2="1" y2="0.5" xlink:href="#j"/><linearGradient id="o" x1="0.552" y1="-0.086" x2="0.347" y2="1.718" xlink:href="#h"/><linearGradient id="p" x1="0.583" y1="-0.266" x2="0.37" y2="1.598" xlink:href="#j"/><linearGradient id="r" x1="-20.96" y1="2.861" x2="-21.65" y2="4.58" gradientUnits="objectBoundingBox"><stop offset="0" stop-color="#ff9085"/><stop offset="1" stop-color="#fb6fbb"/></linearGradient><linearGradient id="s" x1="-20.773" y1="3.109" x2="-21.456" y2="4.838" xlink:href="#r"/><linearGradient id="t" x1="-20.799" y1="3.344" x2="-21.482" y2="5.072" xlink:href="#r"/><linearGradient id="u" x1="1.546" y1="0.045" x2="-1.398" y2="1.235" xlink:href="#j"/><linearGradient id="v" x1="0.612" y1="-2.661" x2="0.367" y2="3.529" xlink:href="#h"/><linearGradient id="w" x1="0.52" y1="0.407" x2="0.247" y2="1.078" gradientUnits="objectBoundingBox"><stop offset="0" stop-color="#fed45b"/><stop offset="1" stop-color="#fee59a"/><stop offset="1" stop-color="#f36f56"/></linearGradient><linearGradient id="x" x1="-3.93" y1="-0.046" x2="-2.741" y2="1.189" gradientUnits="objectBoundingBox"><stop offset="0" stop-color="#311944"/><stop offset="1" stop-color="#6b3976"/></linearGradient><linearGradient id="y" x1="-44.319" y1="-9.063" x2="-42.889" y2="-9.063" xlink:href="#x"/><linearGradient id="z" x1="-71.86" y1="1.454" x2="-68.331" y2="-4.779" xlink:href="#b"/><linearGradient id="aa" x1="-60.102" y1="0.5" x2="-59.102" y2="0.5" xlink:href="#x"/><linearGradient id="ab" x1="-93.161" y1="3.065" x2="-90.662" y2="-0.811" xlink:href="#b"/><linearGradient id="ac" x1="-16.467" y1="0.092" x2="-16.11" y2="1.42" gradientUnits="objectBoundingBox"><stop offset="0" stop-color="#444b8c"/><stop offset="0.996" stop-color="#26264f"/></linearGradient><linearGradient id="ad" x1="-5.385" y1="1.066" x2="-5.192" y2="0.491" xlink:href="#ac"/><linearGradient id="ae" x1="-5.649" y1="2.203" x2="-5.447" y2="1.014" xlink:href="#h"/><linearGradient id="af" x1="-5.722" y1="0.004" x2="-5.57" y2="2.181" xlink:href="#ac"/><linearGradient id="ag" x1="12.019" y1="-1.373" x2="12.071" y2="-3.134" xlink:href="#b"/><linearGradient id="ah" x1="23.175" y1="-3.726" x2="23.131" y2="-0.555" xlink:href="#b"/><linearGradient id="ai" x1="-5.087" y1="0.5" x2="-4.087" y2="0.5" gradientUnits="objectBoundingBox"><stop offset="0" stop-color="#40447e"/><stop offset="0.996" stop-color="#3c3b6b"/></linearGradient><linearGradient id="aj" x1="-4.6" y1="-0.074" x2="-4.122" y2="0.951" xlink:href="#ai"/><linearGradient id="ak" x1="-5.821" y1="-0.105" x2="-5.217" y2="0.95" xlink:href="#ai"/><linearGradient id="al" x1="0.744" y1="0.142" x2="-0.259" y2="2.239" xlink:href="#b"/><linearGradient id="am" x1="-40.427" y1="7.093" x2="-39.661" y2="7.779" gradientUnits="objectBoundingBox"><stop offset="0" stop-color="#ab316d"/><stop offset="1" stop-color="#792d3d"/></linearGradient><linearGradient id="an" x1="-24.745" y1="1.152" x2="-24.745" y2="-0.027" xlink:href="#am"/><linearGradient id="ao" x1="-27.212" y1="0.734" x2="-27.212" y2="-0.116" xlink:href="#am"/><linearGradient id="ap" x1="-8.961" y1="0.292" x2="-9.708" y2="1.155" xlink:href="#am"/><linearGradient id="aq" x1="-76.586" y1="-21.199" x2="-80.02" y2="-15.481" xlink:href="#am"/><linearGradient id="ar" x1="-52.233" y1="-1.129" x2="-51.197" y2="3.497" xlink:href="#am"/></defs><path d="M558.051,480.4c-14.963,20.948,1.961,55.344-20.08,70.986-21.455,15.226-47.346-10.374-67.553,2.714-29.976,19.415-25.489,109.746,17.443,166.293,12.911,17.006,23.779,23.684,28.422,42.811,9.97,41.072-26.84,65.055-20.1,85.387,15.183,45.782,255.661,86.594,353.756-49.483,45.814-63.553,53.541-155.94,13.948-226.586C792.346,444.866,591.627,433.4,558.051,480.4Z" transform="translate(-451.178 -455)" fill="#fff"/><g transform="translate(14.156 36.904)"><path d="M607.436,708.359c-6.623,2.792-46.294,20.1-60.489,45.244-18.829,33.352,20.76,56.416,20.106,133.291-.3,34.958-8.648,49.385,2.831,61.794,16.25,17.567,44.633-.7,80.467,17.166,21.216,10.581,24.631,21.581,47.207,43.989,29.649,29.428,68.356,67.845,110.508,67.592,51.54-.309,79.894-58.261,122.31-43.989,8.9,2.994,22.521,10.547,24.677,7.51,1.894-2.667-5.624-12.71-12.875-18.239-28.372-21.634-66.929,14.965-108.362,2.146-30.437-9.417-23.135-33.344-55.791-55.791C714.505,925.411,630.5,974.5,609.581,942.251c-11.039-17.016,3.556-44.477,12.189-60.721,32.821-61.757,86.9-66.916,183.078-146.348,0,0,43.363-35.814,38.624-42.916-4.752-7.122-51.106,32.728-103.684,20.819-23.771-5.384-25.175-15.994-51.97-18.658-28.773-2.861-58.37,6.27-65.548,8.544C619.352,703.895,613.888,705.639,607.436,708.359Z" transform="translate(-541.864 -691.407)" fill="url(#a)"/><g transform="translate(9.901 60.708)"><g transform="translate(240.416)"><rect width="18.901" height="26.412" transform="translate(3.478 1.906)" fill="url(#b)"/><path d="M2170.048,1253.888h-23.416a1.221,1.221,0,1,0,0,2.442h23.416a1.221,1.221,0,0,0,0-2.442Z" transform="translate(-2145.411 -1226.792)" fill="url(#c)"/><path d="M2176.721,1080.306h-18.9a1.827,1.827,0,0,0,0,3.653h18.9a1.827,1.827,0,0,0,0-3.653Z" transform="translate(-2154.341 -1080.306)" fill="url(#d)"/></g><g transform="translate(268.847)"><rect width="18.901" height="26.412" transform="translate(3.478 1.906)" fill="url(#b)"/><path d="M2352.184,1253.888h-23.416a1.221,1.221,0,0,0,0,2.442h23.416a1.221,1.221,0,1,0,0-2.442Z" transform="translate(-2327.547 -1226.792)" fill="url(#c)"/><path d="M2358.857,1080.306h-18.9a1.827,1.827,0,1,0,0,3.653h18.9a1.827,1.827,0,1,0,0-3.653Z" transform="translate(-2336.477 -1080.306)" fill="url(#d)"/></g><path d="M605.292,2449.876v37.551a39.6,39.6,0,0,0,3.32,15.871h0a39.6,39.6,0,0,0,25.726,22.293l77.382,21.39,8.934-32.239-8.934-41.173Z" transform="translate(-605.292 -2236.083)" fill="url(#h)"/><path d="M815.427,2283.164l-210.135,26.024,106.427,23.694,224.507-31.462Z" transform="translate(-605.292 -2095.396)" fill="url(#i)"/><path d="M1116.089,2392.809l-45.6-8.145a4.616,4.616,0,0,0-1.41-.033l-48.741,6.381a.537.537,0,0,0-.058,1.055l41.651,10.211a3.74,3.74,0,0,0,1.45.065l52.69-8.031A.762.762,0,0,0,1116.089,2392.809Z" transform="translate(-955.153 -2180.99)" fill="#d8dee8"/><path d="M1274.735,2282.229l-2.282,3.35v-26.364h2.282Z" transform="translate(-1168.308 -2075.185)" fill="url(#j)"/><rect width="6.046" height="31.009" transform="translate(102.155 156.595)" fill="url(#k)"/><path d="M1953.375,1496.224c0,3.5-1.942,94-1.942,94l120.8,18.256-8.933-146.434-99.824,12.818Z" transform="translate(-1741.298 -1402.453)" fill="url(#l)"/><path d="M1199.983,2044.292v19.227a5.632,5.632,0,0,0,5.632,5.632h7.38a5.632,5.632,0,0,0,5.632-5.632v-19.227Z" transform="translate(-1107.151 -1893.812)" fill="url(#m)"/><path d="M1098.561,2061.71l-4.049,10.544a4.152,4.152,0,0,0,7.548,3.427l7.377-13.971Z" transform="translate(-1017.908 -1908.511)" fill="url(#n)"/><path d="M1283.178,1451.27l-33.572-167.137a20.237,20.237,0,0,0-5.531-10.325l-7.561-7.561a25.275,25.275,0,0,0-18.188-7.4l-225.186,2.806a105.148,105.148,0,0,0-26.568,3.755l-17.594,6.7,28.962,115.291s33.989-.952,47.8-1.41a21.834,21.834,0,0,0,13.764-5.488l36.27-32.16a119.6,119.6,0,0,1,36.151-22.038l41.154-15.939a40.767,40.767,0,0,1,45.359,29.115L1226.262,1437l-224.507,31.462v73.412l257.357-49.607a21.069,21.069,0,0,0,15.169-11.918l7.4-16.158A21.071,21.071,0,0,0,1283.178,1451.27Z" transform="translate(-895.328 -1230.974)" fill="url(#o)"/><path d="M2645.729,1663.381l-4.866-18.923a4.342,4.342,0,0,0-4.205-3.261h-30.152a4.342,4.342,0,0,0-4.254,5.214l4.375,21.326a4.342,4.342,0,0,0,4.593,3.456l30.644-2.4A4.342,4.342,0,0,0,2645.729,1663.381Z" transform="translate(-2290.447 -1553.641)" fill="url(#p)"/><path d="M948.784,1311.539c-11.669-2.245-29.117-3.7-42.826,3.257a8.385,8.385,0,0,0-4.564,7.484v68.691a8.22,8.22,0,0,0,.313,2.248l8.561,30.124a8.223,8.223,0,0,0,7.5,5.965l20.011.988a7.812,7.812,0,0,0,7.634-4.89l15.022-37.4a16.072,16.072,0,0,0,1.159-5.992v-54.932A15.822,15.822,0,0,0,948.784,1311.539Z" transform="translate(-855.172 -1273.875)" fill="url(#h)"/><ellipse cx="3.593" cy="4.661" rx="3.593" ry="4.661" transform="translate(308.638 71.337) rotate(-9.767)" fill="url(#r)"/><path d="M2676.231,1537.155c.437,2.537-.795,4.866-2.75,5.2s-3.9-1.447-4.331-3.984.794-4.867,2.75-5.2S2675.794,1534.617,2676.231,1537.155Z" transform="translate(-2346.903 -1462.443)" fill="url(#s)"/><path d="M2758.344,1537.155c.436,2.537-.795,4.866-2.75,5.2s-3.895-1.447-4.331-3.984.794-4.867,2.75-5.2S2757.906,1534.617,2758.344,1537.155Z" transform="translate(-2416.198 -1462.443)" fill="url(#t)"/><path d="M1400.688,1422.231h-7.865v49.186h7.865a4.37,4.37,0,0,0,4.37-4.37V1426.6A4.37,4.37,0,0,0,1400.688,1422.231Z" transform="translate(-1269.887 -1368.856)" fill="url(#u)"/><path d="M1457.393,2557.469c-78.045-3.006-105.216,42.012-152.066,23.888a74.657,74.657,0,0,1-18.256-10.257v55.119l257.357-49.607a21.069,21.069,0,0,0,15.169-11.918l7.4-16.158a21.053,21.053,0,0,0,1.526-4.766,92.633,92.633,0,0,1-27.811,16.611C1511.558,2571.281,1496.769,2558.985,1457.393,2557.469Z" transform="translate(-1180.644 -2315.321)" opacity="0.3" fill="url(#v)" style="mix-blend-mode:multiply;isolation:isolate"/><path d="M1392.822,1474.42l18.3-8.626c1.486-.62,4.036,1.079,4.036,2.689v.815a4.585,4.585,0,0,1-2.979,4.294l-19.355,7.237Z" transform="translate(-1269.887 -1405.508)" fill="#97a6b7"/><path d="M1392.822,1473.961l17.536-7.319a2.255,2.255,0,0,1,3.123,2.081v.815a4.585,4.585,0,0,1-2.979,4.294l-17.68,6.611Z" transform="translate(-1269.887 -1406.185)" fill="#d8dee8"/><path d="M1283.7,1271.04c45.394-.332,68.091-.5,81.273,6.991a71.965,71.965,0,0,0,30.587,8.739c6.417.326,12.134.549,14.856-2.622,3.537-4.119.866-12.625-3.477-21.187a25.275,25.275,0,0,0-14.135-4.115l-225.186,2.806a105.092,105.092,0,0,0-11.888.837,151.18,151.18,0,0,0,30.967,10.3C1214.734,1278.815,1220.582,1271.5,1283.7,1271.04Z" transform="translate(-1069.808 -1230.974)" fill="#fff" opacity="0.5" style="mix-blend-mode:soft-light;isolation:isolate"/></g><path d="M1089.322,2285.742c-28.372-21.634-66.929,14.965-108.363,2.146-30.437-9.417-23.135-33.345-55.79-55.791-62.051-42.652-139.6,8.563-168.445-26.822a39.073,39.073,0,0,1-7.782-17.213q-3.744,2.284-7.4,4.7c-8.708,5.755-17.068,11.982-25.315,18.363.267.2.53.394.8.584,22.595,15.752,44.013-1.014,80.467,17.167,21.216,10.581,24.631,21.581,47.207,43.989,29.649,29.428,68.356,67.846,110.508,67.592,51.54-.309,79.894-58.261,122.31-43.989,8.9,2.993,22.52,10.547,24.677,7.51C1104.09,2301.314,1096.573,2291.271,1089.322,2285.742Z" transform="translate(-689.006 -1954.43)" fill="url(#w)"/></g><g transform="translate(84.185 18.641)"><g transform="translate(0)"><path d="M1084.035,612.35c2.122-1.376.188-5.379.074-13.977-.14-10.536,2.658-12.5.411-16.633-2.748-5.055-9.667-7.147-14.25-7.245-1.011-.021-1.247-.574-9.717,1.62-15.258,3.952-19.078-.284-25.911,3.947-6.6,4.089-3.711,8.566-10.122,13.36-10.391,7.772-21.319-.63-28.745,5.87-7.025,6.149-7.186,21.815.2,30.365,8.376,9.692,23.48,6.78,33.6,4.858a61.874,61.874,0,0,0,24.089-10.931,64.146,64.146,0,0,0,13.158-13.057,4.749,4.749,0,0,1,2.935-1.721,5.132,5.132,0,0,1,3.441,1.214C1076.4,612.234,1081.951,613.7,1084.035,612.35Z" transform="translate(-990.472 -574.418)" fill="url(#x)"/><path d="M1530.846,776.808c2.729-2.486,12.467,2.306,18.921,8.665,7.582,7.472,7,13.529,13.616,22.811,3.289,4.614,8.928,10.826,18.921,16.268l-2.122,5.3c-4.831.291-14.316.12-23.165-5.658-6.147-4.014-9.309-9.332-15.384-19.805C1535.536,793.882,1527.435,779.916,1530.846,776.808Z" transform="translate(-1445.81 -744.65)" fill="#efefef"/><path d="M1858.231,1662.459l-3.1-6.593a5.7,5.7,0,0,0-1.988-2.311l-1.537-1.029s-3.673-.1-4.244,2.211c-.123,2.932,5.574,9.482,9.178,12.084.6.432,1.451,1.007,1.969.711C1859.383,1667.031,1858.767,1664.334,1858.231,1662.459Z" transform="translate(-1713.595 -1484.231)" fill="url(#y)"/><path d="M1859.2,1629.566c-.489,2.828.129,4.3.8,5.128.469.581,4.274,6.856,2.711,7.869-.705.457-5.54-5.547-6.009-6.466-.425-.833-.7-.636-.726-2.906a11.826,11.826,0,0,0-.559-3.449Z" transform="translate(-1720.391 -1464.855)" fill="url(#z)"/><path d="M1880.512,1475.255s3.435,4.1,2.876,8.591-6.574-2.076-7.412-4.3-1.818-5.382-1.818-5.382S1878.375,1471.545,1880.512,1475.255Z" transform="translate(-1736.212 -1332.956)" fill="url(#aa)"/><path d="M1887.911,1444.922s-.932,4.775.845,7.294c.885,1.255,2.079,2.319,1.728,3.341a1.9,1.9,0,0,1-1.885,1.1c-1.449-.149-2.252-2.37-2.819-3.937a41.2,41.2,0,0,1-1.3-7.265Z" transform="translate(-1744.922 -1309.035)" fill="url(#ab)"/><path d="M1751.553,1204.342l3.169-1.154a35.7,35.7,0,0,0,2.987-17.459c-1.727-19.323-19.6-29.562-21.584-30.658-4.869,2.443-9.8,5.89-9.98,10.234-.224,5.454,7.206,8.337,14.19,16.312C1744.527,1186.4,1749.007,1193.538,1751.553,1204.342Z" transform="translate(-1611.3 -1064.43)" fill="url(#ac)"/><path d="M1444,1164.983a77.045,77.045,0,0,0,1.592-31.166c-1.522-9.687-4.617-29.389-17.771-36.736-2.873-1.6-6.979-3.041-11.984-7.5a42.448,42.448,0,0,1-8.439-10.4c-17.593-5.161-33.82-3.069-40.98,6.366a13.687,13.687,0,0,0-3.3,6.942c-.9,7.867,6.826,17.339,15.5,19.317,11.024,2.514,17.42-8.806,27.187-5.04,2.732,1.053,5.049,3.664,9.681,8.886a73.862,73.862,0,0,1,10.46,15.224c3.732,7.3,6.562,12.694,6.975,19.681a18.885,18.885,0,0,0,2.06,8.462,17.644,17.644,0,0,0,4.923,5.659Z" transform="translate(-1304.882 -998.062)" fill="url(#ad)"/><path d="M1363.113,1092.484a13.687,13.687,0,0,1,3.3-6.942c7.16-9.435,23.387-11.527,40.98-6.366a42.451,42.451,0,0,0,8.439,10.4c5.005,4.46,9.112,5.9,11.984,7.5,8.033,4.487,12.311,13.579,14.774,22.186-3.654-5.666-6.783-7.173-9.2-7.2-3.465-.039-5.013,2.924-9.151,2.52-4.422-.432-5.434-4.089-9.018-4.509a6.675,6.675,0,0,0-3.979.884c-2.116-2.216-3.693-3.527-5.437-4.2-9.767-3.766-16.163,7.554-27.187,5.04C1369.939,1109.823,1362.209,1100.352,1363.113,1092.484Z" transform="translate(-1304.882 -998.062)" opacity="0.3" fill="url(#ae)" style="mix-blend-mode:multiply;isolation:isolate"/><path d="M1422.284,1157.9a57.959,57.959,0,0,0-8.757.2c-17.554,1.735-22.393,10.418-36.9,12.536-3.432.5-18.712,2.733-25.331-6.1-4.751-6.342-4.032-17.27,1.164-21.568,2.2-1.819,4.377-1.768,18.464-1.641,5.3.048,10.61.065,15.914.133,22.455.286,26.75-1.269,30.835,2.445C1419.58,1145.64,1422.367,1149.362,1422.284,1157.9Z" transform="translate(-1292.286 -1052.788)" fill="url(#af)"/><g transform="translate(47.717 31.566)"><path d="M1331.024,778.137s-17.724-5.169-25.531,3.668c-1.433,1.622-2.566,3.756-3.391,7.874-4.2,20.986,11.691,33.59,5.429,44.662-2.486,4.4-6.866,5.721-9.978,13.622-.527,1.338-2.433,6.176-.684,7.7,1.54,1.343,4.073-1.492,8.572-.945,4.764.58,5.877,4.24,9.083,3.707,2.09-.347,2.991-2.132,6.07-6.58,4.457-6.441,6.686-9.661,8.284-10.79,6.3-4.455,11.176,1.355,18.364-3.057,2.6-1.6,12.245-14.012,9.408-10.6h0c-6.752-8.424-8.321-15.374-8.483-20.206-.177-5.3,1.35-7.705,0-13.968a31.408,31.408,0,0,0-6.941-12.988C1340.447,779.374,1339.517,778.477,1331.024,778.137Z" transform="translate(-1296.147 -776.635)" fill="#efefef"/></g><g transform="translate(69.028 17.257)"><path d="M1440.543,712.612c.24,1.122,1.462,7.139-1,8.688a13.048,13.048,0,0,1-3.61.912c-1.343.252-2.469.406-3.264.5a8.232,8.232,0,0,0,1.619,4.146c3.265,4.188,9.81,3.1,10.744,2.934,3.292-.6,6.532-1.617,7.315-2.238a16.59,16.59,0,0,0,2.682-2.379,46.592,46.592,0,0,0-5.573-2.771,32,32,0,0,0-3.6-.883l-.543-3.488Z" transform="translate(-1432.668 -708.297)" fill="url(#ag)"/><path d="M1476.062,692.283s.445,4.41,4.732,5.187c3.838.7,6.728-8.58,4.763-10.979a5.14,5.14,0,0,0-3.675-1.521,5.7,5.7,0,0,0-4.782,4.63c-.664-.7-1.49-.9-1.9-.607-.517.371-.24,1.451-.177,1.7A3.106,3.106,0,0,0,1476.062,692.283Z" transform="translate(-1468.303 -684.968)" fill="url(#ah)"/></g><path d="M1356.651,978.806c-.812-1.014-1.546-2-2.215-2.974a35.241,35.241,0,0,0-9.545-1.838c-5.862-.284-9.072,1.095-13.063-1.306-4.53-2.726-3.728-6.51-8.1-8.622-4.6-2.223-7.853.289-12.279-.522-2.673-.49-5.928-2.277-9.251-7.492,2.544,12.553,9.944,21.544,5.332,29.7-2.486,4.4-6.866,5.721-9.978,13.622-.527,1.338-2.433,6.176-.684,7.7,1.54,1.343,4.073-1.492,8.572-.944,4.764.58,5.877,4.24,9.083,3.707,2.09-.348,2.991-2.132,6.07-6.58,4.458-6.441,6.686-9.661,8.284-10.79,6.3-4.455,11.176,1.355,18.364-3.057C1349.845,987.811,1359.488,975.4,1356.651,978.806Z" transform="translate(-1248.431 -896.478)" fill="#d8dee8" opacity="0.57"/></g><g transform="translate(70.8 62.149)"><path d="M1486.783,1115.616l-40.1,1.952a1.685,1.685,0,0,0-1.348.792l-1.11,1.781a1.3,1.3,0,0,0,1.155,1.99l42.481-1.618Z" transform="translate(-1444.021 -1093.282)" fill="url(#ai)"/><path d="M1667.643,972.547l-41.433.8a3.475,3.475,0,0,0-2.954,1.758l-14.348,25.243,43.758-1.743a3.562,3.562,0,0,0,2.914-1.73l13.293-22.208A1.4,1.4,0,0,0,1667.643,972.547Z" transform="translate(-1583.169 -972.546)" fill="url(#aj)"/><path d="M1623.255,979.354a3.476,3.476,0,0,1,2.955-1.758l.908-.018a6.455,6.455,0,0,0,1.364,3.549c2.555,3.084,6.8,1.182,9.963,4.445,3.475,3.585.265,7.853,3.372,11.189,3.27,3.512,8.559.652,14.639,2.9l-.875,1.463a3.561,3.561,0,0,1-2.914,1.73l-43.758,1.743Z" transform="translate(-1583.169 -976.793)" opacity="0.3" fill="url(#ak)" style="mix-blend-mode:multiply;isolation:isolate"/></g><g transform="translate(34.318 34.187)"><path d="M1252.721,842.375l1.566-4.135c-5.769-1.582-13.748-3.919-21.932-6.843-1.281-.458-2.8-1.025-3.3-2.374-1.4-3.783,7.5-7.7,10.956-15.965,3.2-7.64,1.438-18.243-2.274-19.5-7.725-2.607-35.117,31.49-25.334,45.864C1217.93,847.55,1234.98,848.844,1252.721,842.375Z" transform="translate(-1210.315 -793.42)" fill="#efefef"/></g><path d="M1481.661,1076.008c3.622-1.924,7.957.048,8.237.18a10.825,10.825,0,0,1,3.124,2.24c.132.181,1.7,2.357,1.131,3.055-.459.559-2.235.1-4.371-1.233a16.6,16.6,0,0,0-3.824-.094c-2.932.271-4.274,1.2-5.339.4a2.64,2.64,0,0,1-.764-2.742A3.264,3.264,0,0,1,1481.661,1076.008Z" transform="translate(-1403.37 -997.001)" fill="url(#al)"/></g><g transform="translate(245.653 200.173)"><path d="M2278.889,1744.654l.784-3.47a6.4,6.4,0,0,1,4.65-3.679c3.6-.783,3.722,1.183,3.722,1.183l-2.312.9a4.769,4.769,0,0,0-2.362,2.885,12.718,12.718,0,0,1-2.684,3.553Z" transform="translate(-2239.232 -1737.321)" fill="url(#am)"/><path d="M2577.139,3095.782s2.234,5.617,1.646,8.109a25.1,25.1,0,0,0,3.951-.352,27.215,27.215,0,0,1-1.152-3.832,37.68,37.68,0,0,1-.235-4.49Z" transform="translate(-2490.925 -2883.248)" fill="url(#an)"/><path d="M2275.768,3192.894a1.68,1.68,0,0,1,.4.983,1.6,1.6,0,0,1-.121.659c-.363.955-.933,1.081-1.548,2.094-.376.619-.3.806-.649,1.085a2.257,2.257,0,0,1-1.479.395,26.343,26.343,0,0,1-3.42-.193q1.146-1.477,2.441-2.994.569-.664,1.135-1.3l2.246-.759Z" transform="translate(-2230.847 -2965.654)" fill="#26264f"/><path d="M2277.579,3123.2s-1.284,6.7.35,8.572c1.392,1.875-.672.537-.672.537l-2.465,2.15-1.479,2.553s1.362-6.554,1-9.155-.545-4.355-.545-4.355Z" transform="translate(-2234.526 -2906.864)" fill="url(#ao)"/><path d="M2184.129,2302.014a164.024,164.024,0,0,0-5.5,25.157c-4.306,31.322,4.846,32.321,3.137,67.031-.545,11.079,9.6,36.627,10.493,37.191a10.993,10.993,0,0,0,1.4.055,13.982,13.982,0,0,0,3.573-.6c1.607-.277,7.4-15.969,6.058-25.3-.95-6.6-.675-13.69-.124-27.864.089-2.3,5.965-44.681,5.965-44.681h0c1.787,15.688,3.843,29.018,5.625,39.354,5.725,33.2,24.341,53.3,25.312,53.625a3.936,3.936,0,0,0,3.366-.229,2.326,2.326,0,0,0,.852-.96c.5-.39-.147-33.151-5.825-57.807-8.242-35.787-4.653-44.161-7.264-60.146C2228.944,2293.014,2184.129,2302.014,2184.129,2302.014Z" transform="translate(-2153.643 -2211.436)" fill="#1f1f4b"/><g transform="translate(86.759 218.612)"><path d="M2581.145,3164.435s-.557,0-.51.719-.251,3.192,2.58,3.308,3.267-.2,3.36-.2a23.221,23.221,0,0,0-.743-2.365l-.9-1.159-2.436-.255Z" transform="translate(-2580.632 -3160.271)" fill="#26264f"/><path d="M2587.938,3144.408a9.012,9.012,0,0,0-.731-2.293c-.5-1.123-.09-1.544-.567-2.567a3.054,3.054,0,0,0-.675-1.022,2.929,2.929,0,0,0-2-.761,2.04,2.04,0,0,0-.941.22,2.194,2.194,0,0,0-.846.894,9.892,9.892,0,0,0-.682,2.021,5.05,5.05,0,0,0-.178.688,4.953,4.953,0,0,0-.074.617c.742,0,3.6.116,4.2.557a2.362,2.362,0,0,1,.9,1.924c0,.743.371,1.09.742,1.067A1.218,1.218,0,0,0,2587.938,3144.408Z" transform="translate(-2581.148 -3137.762)" fill="#444b8c"/></g><path d="M2271.956,3172.087c.607.01,1.053.493,1.389,1.658s1.95,2.2.067,1.948-3.249,2.419-3.921,3.4-2.477,1.861-2.432.9.841-1.413,1.065-2.4S2270.57,3172.065,2271.956,3172.087Z" transform="translate(-2229.248 -2948.118)" fill="#444b8c"/><path d="M2232.542,1899.843c-5.472-.161-16.07-1.948-23,4.285-.12.108-.681.722-1.379,1.54a45.374,45.374,0,0,0-4.891,7.018,47.188,47.188,0,0,0-4.111,10.168,87.359,87.359,0,0,0-3.245,17.74c-1.266,16.653-.01,24.336,1.129,29.561,4.947,2.542,17.7,7.089,32.884,4.829a51.306,51.306,0,0,0,16.394-5.4c-3.941-11.933-.849-18.319.61-24.2,2.88-11.621,3.532-16.184,11.673-32.9,2.245-4.607-3.085-2.026-6.5-6.07C2246.875,1900.211,2237.441,1899.987,2232.542,1899.843Z" transform="translate(-2168.767 -1874.17)" fill="#efefef"/><g transform="translate(57.104 6.975)"><path d="M2393.052,1811.069a9.512,9.512,0,0,1,3.607-5.87c2.385-1.9,2.87-2.086,3.689-2.242l1.118-.169s.06,0,.122.005a11.148,11.148,0,0,1,2.974,1.056c1.14.8.3,6.478-3.155,13.538q-.2.9-.408,1.794c3.011.529,3.758,1.073,3.781,1.506.052.94-3.247,2.139-6.3,2.217-3.833.1-7.9-1.551-7.823-2.782.031-.5.754-1.113,3.537-1.716l1.3-1.834C2395.1,1816.094,2392.737,1813.5,2393.052,1811.069Z" transform="translate(-2390.655 -1799.544)" fill="url(#ap)"/><path d="M2430.307,1783.1a5.2,5.2,0,0,0-1.141,4.688c.213.88.488.973.448,1.549-.11,1.618-3.058,2.324-2.894,3.139.117.582,1.651.37,1.916,1.1.289.8-1.4,1.491-2.12,3.505-.113.314-.8,2.221.081,3.343.821,1.047,2.657.8,4.729.53a16.57,16.57,0,0,0,4.4-1.182,10.932,10.932,0,0,0,4.484-3.016,9.189,9.189,0,0,0,2.038-6.033,9.494,9.494,0,0,0-7.541-8.6C2434.106,1782.022,2431.781,1781.656,2430.307,1783.1Z" transform="translate(-2420.614 -1782.005)" fill="#26264f"/><path d="M2426.727,1847.161c.869-.52,1.531.6,1.122,1.575a1.932,1.932,0,0,1-2.62,1.006C2424.4,1849.16,2425.558,1847.861,2426.727,1847.161Z" transform="translate(-2419.594 -1836.878)" fill="url(#aq)"/></g><path d="M2076.587,1780.128c-5.336-.541-16.17-.078-16.586-1.623-.068-.253-.061-.663,1.839-2.812,3.8-4.3,5.9-5.068,6.706-7.572a7.031,7.031,0,0,0-.062-4.207c-.009-.011-2.359-2.727-2.367-2.739a7.168,7.168,0,0,0-2.367-2.739,24.974,24.974,0,0,0-7.319-.591c-16.291,1.134-34.238,19.072-31.261,34.4,2.731,14.062,23.259,26.869,46.324,19.768C2080.6,1789.48,2080.224,1780.5,2076.587,1780.128Z" transform="translate(-2024.844 -1754.592)" fill="#efefef"/><path d="M2478.2,2253.891a2.656,2.656,0,0,1-1.935.255c-1.171-.255-2.6-1.222-3.869-1.629s-1.374,1.477.509,2.444a10.511,10.511,0,0,1,4.225,4.378c.713,1.476,2.495-1.782,2.495-1.782Z" transform="translate(-2401.746 -2172.045)" fill="url(#ar)"/><path d="M2495.27,1917.378c2.892-.118,16.038-.341,26.9,9.519,2.184,1.983,12.562,11.4,11.682,24.879-1.055,16.162-17.763,29.851-30.613,27.9a17.512,17.512,0,0,1-7.247-2.949h0l-2.137-6.046c-.034-4.32,2.328-7.34,3.543-9.009,3-4.114,7.267-4.833,7.9-8.478.349-2.017-.635-3.669-1.514-5.144-2.994-5.026-7.775-5.645-10.25-8.216C2490.975,1937.181,2488.054,1930.53,2495.27,1917.378Z" transform="translate(-2417.998 -1889.246)" fill="#efefef"/><path d="M2077.106,1958.594c-2.623-3.209-8.351-10.384-10.193-20.922-2.345-13.419,4.034-18.418.537-24.677-6.379-11.415-31.55-1.847-38.624-11.8-1.4-1.97-2.154-4.807-1.536-8.981a21.781,21.781,0,0,0-2.119,13.472c1.959,10.085,13.073,19.523,27.712,21.436-.529,3.229-.769,5.8-.885,7.337-1.266,16.653-.01,24.336,1.129,29.561,4.947,2.541,17.7,7.089,32.885,4.829.709-.106,1.4-.228,2.08-.358A49.138,49.138,0,0,1,2077.106,1958.594Z" transform="translate(-2024.846 -1868.034)" fill="#efefef" style="mix-blend-mode:multiply;isolation:isolate"/></g></svg>